<svg width="80" height="81" viewBox="0 0 80 81" fill="none" xmlns="http://www.w3.org/2000/svg">
<rect width="80" height="80.8791" stroke="black"/>
<path d="M50 37.0695V37.1032M17.2433 28.2334C15.7813 27.0974 14.6585 25.5749 13.9989 23.8341C13.3393 22.0932 13.1686 20.2019 13.5057 18.3692C13.8428 16.5364 14.6746 14.8335 15.9092 13.4488C17.1437 12.0641 18.7329 11.0515 20.5011 10.5228C22.2693 9.99407 24.1477 9.96994 25.9286 10.453C27.7096 10.9361 29.3237 11.9077 30.5926 13.2602C31.8616 14.6128 32.7359 16.2937 33.119 18.1172C33.5021 19.9407 33.379 21.8358 32.7633 23.593" stroke="white" stroke-width="2" stroke-linecap="round" stroke-linejoin="round"/>
<path d="M53.3333 13.4797V26.2957C57.4585 28.7092 60.5993 32.5284 62.1933 37.0695H66.6633C67.5474 37.0695 68.3952 37.4245 69.0204 38.0565C69.6455 38.6885 69.9967 39.5457 69.9967 40.4394V47.1794C69.9967 48.0731 69.6455 48.9303 69.0204 49.5623C68.3952 50.1943 67.5474 50.5493 66.6633 50.5493H62.19C61.07 53.7508 59.1667 56.6153 56.6633 58.8833V65.7142C56.6633 67.0548 56.1366 68.3406 55.1989 69.2886C54.2612 70.2365 52.9894 70.7691 51.6633 70.7691C50.3373 70.7691 49.0655 70.2365 48.1278 69.2886C47.1901 68.3406 46.6633 67.0548 46.6633 65.7142V63.7495C45.5619 63.9367 44.4469 64.0302 43.33 64.0292H29.9967C28.8798 64.0302 27.7648 63.9367 26.6633 63.7495V65.7142C26.6633 67.0548 26.1365 68.3406 25.1989 69.2886C24.2612 70.2365 22.9894 70.7691 21.6633 70.7691C20.3372 70.7691 19.0655 70.2365 18.1278 69.2886C17.1901 68.3406 16.6633 67.0548 16.6633 65.7142V58.8833C13.6432 56.1535 11.5143 52.5608 10.5583 48.5808C9.60229 44.6008 9.86437 40.4212 11.3098 36.5951C12.7552 32.769 15.3159 29.4769 18.6528 27.1545C21.9897 24.8321 25.9455 23.589 29.9967 23.5896H38.33L53.3333 13.4797Z" stroke="white" stroke-width="2" stroke-linecap="round" stroke-linejoin="round"/>
</svg>
